<svg width="310" height="310" viewBox="0 0 310 310" fill="none" xmlns="http://www.w3.org/2000/svg">
<path d="M155 0.560059C69.8705 0.560059 0.5 69.9306 0.5 155.06C0.5 240.19 69.8705 309.56 155 309.56C240.13 309.56 309.5 240.19 309.5 155.06C309.5 69.9306 240.13 0.560059 155 0.560059ZM16.1045 155.06C16.1045 134.975 20.4305 115.817 28.1555 98.5131L94.436 280.051C48.086 257.494 16.1045 210.062 16.1045 155.06ZM155 293.956C141.404 293.956 128.271 291.947 115.757 288.239L157.472 167.111L200.114 284.068C200.423 284.686 200.732 285.458 201.041 285.922C186.672 291.175 171.223 293.956 155 293.956ZM174.158 89.8611C182.501 89.3976 190.072 88.4706 190.072 88.4706C197.488 87.5436 196.715 76.5741 189.145 77.0376C189.145 77.0376 166.588 78.7371 152.064 78.7371C138.469 78.7371 115.448 77.0376 115.448 77.0376C108.032 76.7286 107.105 88.1616 114.676 88.6251C114.676 88.6251 121.783 89.5521 129.199 90.0156L150.828 149.344L120.392 240.499L69.8705 89.8611C78.2135 89.5521 85.784 88.6251 85.784 88.6251C93.2 87.6981 92.4275 76.7286 84.857 77.1921C84.857 77.1921 62.3 78.8916 47.777 78.8916C45.1505 78.8916 42.0605 78.8916 38.816 78.7371C63.845 41.0391 106.487 16.1646 155 16.1646C191.153 16.1646 224.061 29.9151 248.781 52.6266C248.163 52.6266 247.546 52.4721 246.928 52.4721C233.332 52.4721 223.598 64.3686 223.598 77.1921C223.598 88.6251 230.241 98.3586 237.194 109.792C242.447 119.062 248.627 130.958 248.627 148.108C248.627 160.004 243.992 173.755 238.121 193.067L224.216 239.417L174.158 89.8611ZM276.9 88.4706C294.254 120.23 298.523 157.51 288.798 192.37C279.073 227.23 256.122 256.917 224.834 275.107L267.322 152.434C275.201 132.658 277.828 116.744 277.828 102.685C277.828 97.5861 277.518 92.7966 276.9 88.4706Z" fill="#21759B"/>
</svg>
